<svg id="Ebene_1" data-name="Ebene 1" xmlns="http://www.w3.org/2000/svg" viewBox="0 0 14.69 13.18"><defs><style>.cls-1{fill:#9da4ac;}</style></defs><title>admin-tools</title><path class="cls-1" d="M2514.28,2503.88h-10.5a.5.5,0,0,1-.49-.37l-1.59-5.92a.5.5,0,0,1,.82-.5l3.5,3.22,2.53-5.92a.5.5,0,0,1,.46-.31h0a.51.51,0,0,1,.46.3l2.61,6,3.45-3.22a.51.51,0,0,1,.6-.06.49.49,0,0,1,.22.56l-1.59,5.89A.5.5,0,0,1,2514.28,2503.88Zm-10.12-1h9.73l1-3.83-2.69,2.51a.48.48,0,0,1-.44.12.5.5,0,0,1-.36-.29l-2.42-5.55-2.36,5.52a.5.5,0,0,1-.8.17l-2.74-2.53Z" transform="translate(-2501.68 -2494.08)"/><rect class="cls-1" x="1.64" y="11.8" width="11.43" height="1.39" rx="0.37" ry="0.37"/></svg>