<svg id="Ebene_1" data-name="Ebene 1" xmlns="http://www.w3.org/2000/svg" xmlns:xlink="http://www.w3.org/1999/xlink" viewBox="0 0 11.59 16.5"><defs><style>.cls-1{fill:url(#Unbenannter_Verlauf_64);}</style><linearGradient id="Unbenannter_Verlauf_64" x1="1793.32" y1="1978.43" x2="1801.73" y2="1989.55" gradientUnits="userSpaceOnUse"><stop offset="0" stop-color="#ffde0d"/><stop offset="0.55" stop-color="#f6aa14"/><stop offset="1" stop-color="#f08319"/></linearGradient></defs><title>Unbenannt-3</title><path class="cls-1" d="M1803,1982.7a12,12,0,0,0-1.44-3.9,11.83,11.83,0,0,0-5.43-4.63,5.83,5.83,0,0,1-.7,4.45c-.4.56-.71.68-2,2.16a8.42,8.42,0,0,0-1.43,2,5.51,5.51,0,0,0-.41,2.76,5.7,5.7,0,0,0,1.67,3.43,5.85,5.85,0,0,0,3.44,1.66,5.78,5.78,0,0,0,3.46-.71,5.71,5.71,0,0,0,2.15-2.09,6.79,6.79,0,0,0,.73-2.06,6.14,6.14,0,0,0,.1-.78A11.18,11.18,0,0,0,1803,1982.7Zm-2.86,4.26a3,3,0,0,1-.78,1.72,2.73,2.73,0,0,1-1.63.84,2.63,2.63,0,0,1-1.64-.34,2.68,2.68,0,0,1-1-1,3.78,3.78,0,0,1-.35-1c0-.16,0-.29,0-.39a5.53,5.53,0,0,1,.08-1.14,6.16,6.16,0,0,1,.68-1.95,5.73,5.73,0,0,1,2.56-2.34,3,3,0,0,0,.34,2.22c.19.27.34.33.93,1.07a4.07,4.07,0,0,1,.68,1A2.79,2.79,0,0,1,1800.16,1987Z" transform="translate(-1791.61 -1974.17)"/></svg>