<svg id="Ebene_1" data-name="Ebene 1" xmlns="http://www.w3.org/2000/svg" xmlns:xlink="http://www.w3.org/1999/xlink" viewBox="0 0 13.97 12.48"><defs><style>.cls-1{fill:url(#Unbenannter_Verlauf_64);}</style><linearGradient id="Unbenannter_Verlauf_64" x1="979.07" y1="1469.69" x2="986.57" y2="1478.35" gradientUnits="userSpaceOnUse"><stop offset="0" stop-color="#ffde0d"/><stop offset="0.55" stop-color="#f6aa14"/><stop offset="1" stop-color="#f08319"/></linearGradient></defs><title>Unbenannt-2</title><path class="cls-1" d="M988.79,1473H978.68l3.87-3.87a.88.88,0,1,0-1.24-1.24l-5.36,5.37a.88.88,0,0,0,0,1.24l5.36,5.36a.91.91,0,0,0,.62.26.87.87,0,0,0,.62-.26.88.88,0,0,0,0-1.24l-3.87-3.87h10.11a.88.88,0,0,0,0-1.75Z" transform="translate(-975.69 -1467.62)"/></svg>