<svg id="Ebene_1" data-name="Ebene 1" xmlns="http://www.w3.org/2000/svg" xmlns:xlink="http://www.w3.org/1999/xlink" viewBox="0 0 13.36 13.41"><defs><style>.cls-1{fill:url(#Unbenannter_Verlauf_64);}</style><linearGradient id="Unbenannter_Verlauf_64" x1="2467.48" y1="2466.32" x2="2480.85" y2="2466.32" gradientUnits="userSpaceOnUse"><stop offset="0" stop-color="#ffdd08"/><stop offset="0.55" stop-color="#f6a811"/><stop offset="1" stop-color="#ef8118"/></linearGradient></defs><title>store-gold</title><path class="cls-1" d="M2479.24,2463.42a.51.51,0,0,0-.5-.42h-1.1v-.36a3.51,3.51,0,0,0-6.95,0v.36h-1.11a.5.5,0,0,0-.49.42l-1.6,9a.46.46,0,0,0,.11.4.46.46,0,0,0,.38.18h12.37a.49.49,0,0,0,.38-.18.52.52,0,0,0,.11-.4Zm-7.55-.78a2.52,2.52,0,0,1,4.95,0v.36h-4.95Zm-3.11,9.38,1.42-8h.69v1.43a.68.68,0,0,0-.2.49.7.7,0,0,0,1.4,0,.72.72,0,0,0-.2-.49V2464h4.95v1.43a.72.72,0,0,0-.2.49.7.7,0,1,0,1.4,0,.72.72,0,0,0-.2-.49V2464h.68l1.43,8Z" transform="translate(-2467.48 -2459.61)"/></svg>