<svg id="Ebene_1" data-name="Ebene 1" xmlns="http://www.w3.org/2000/svg" viewBox="0 0 16.44 11.49"><defs><style>.cls-1{fill:#9fa5ad;}.cls-2{fill:none;stroke:#9fa5ad;stroke-linecap:round;stroke-linejoin:round;}</style></defs><title>Unbenannt-1</title><path class="cls-1" d="M2395.08,2329a2.4,2.4,0,0,1,4.63,0v.57h-4.63V2329Z" transform="translate(-2392.31 -2320.83)"/><circle class="cls-1" cx="5.08" cy="4.47" r="1.12"/><line class="cls-2" x1="8.8" y1="4.47" x2="13.97" y2="4.47"/><line class="cls-2" x1="9.89" y1="7.62" x2="12.89" y2="7.62"/><path class="cls-1" d="M2406.75,2321.47h-3v1h3a1,1,0,0,1,1,1v6.83a1,1,0,0,1-1,1h-12.44a1,1,0,0,1-1-1v-6.83a1,1,0,0,1,1-1h3v-1h-3a2,2,0,0,0-2,2v6.83a2,2,0,0,0,2,2h12.44a2,2,0,0,0,2-2v-6.83A2,2,0,0,0,2406.75,2321.47Z" transform="translate(-2392.31 -2320.83)"/><rect class="cls-1" x="5.66" width="5.13" height="2.22" rx="0.66" ry="0.66"/></svg>