<svg xmlns="http://www.w3.org/2000/svg" viewBox="0 0 18 18">
    <path
        d="M14,15.79H2a.72.72,0,0,1-.72-.72V13.59c0-2.92,3-5.3,6.75-5.3s6.75,2.38,6.75,5.3v1.48A.72.72,0,0,1,14,15.79ZM2.69,14.35H13.31v-.76c0-2.13-2.38-3.86-5.31-3.86s-5.31,1.73-5.31,3.86Z"
        transform="translate(-1.25 -0.21)" fill="#9fa5ad"/>
    <path
        d="M8,7.49a3.64,3.64,0,1,1,3.64-3.64A3.64,3.64,0,0,1,8,7.49ZM8,1.65a2.2,2.2,0,1,0,2.2,2.2A2.2,2.2,0,0,0,8,1.65Z"
        transform="translate(-1.25 -0.21)" fill="#9fa5ad"/>
</svg>