<svg id="Ebene_1" data-name="Ebene 1" xmlns="http://www.w3.org/2000/svg" xmlns:xlink="http://www.w3.org/1999/xlink" viewBox="0 0 16.44 11.49"><defs><style>.cls-1{fill:url(#Unbenannter_Verlauf_32);}.cls-2{fill:url(#Unbenannter_Verlauf_32-2);}.cls-3{fill:url(#Unbenannter_Verlauf_32-3);}.cls-4{fill:url(#Unbenannter_Verlauf_32-4);}.cls-5{fill:url(#Unbenannter_Verlauf_32-5);}.cls-6{fill:url(#Unbenannter_Verlauf_32-6);}</style><linearGradient id="Unbenannter_Verlauf_32" x1="2408.13" y1="2342.73" x2="2423.72" y2="2354.48" gradientUnits="userSpaceOnUse"><stop offset="0" stop-color="#ffde0d"/><stop offset="0.55" stop-color="#f6aa14"/><stop offset="1" stop-color="#f08319"/></linearGradient><linearGradient id="Unbenannter_Verlauf_32-2" x1="-0.1" y1="0.57" x2="15.49" y2="12.32" xlink:href="#Unbenannter_Verlauf_32"/><linearGradient id="Unbenannter_Verlauf_32-3" x1="2412.18" y1="2337.36" x2="2427.76" y2="2349.11" xlink:href="#Unbenannter_Verlauf_32"/><linearGradient id="Unbenannter_Verlauf_32-4" x1="2410.67" y1="2339.37" x2="2426.25" y2="2351.12" xlink:href="#Unbenannter_Verlauf_32"/><linearGradient id="Unbenannter_Verlauf_32-5" x1="2410.26" y1="2339.9" x2="2425.85" y2="2351.65" xlink:href="#Unbenannter_Verlauf_32"/><linearGradient id="Unbenannter_Verlauf_32-6" x1="2.66" y1="-3.09" x2="18.24" y2="8.66" xlink:href="#Unbenannter_Verlauf_32"/></defs><title>Unbenannt-1</title><path class="cls-1" d="M2412.76,2348a2.4,2.4,0,0,1,4.63,0v.57h-4.63V2348Z" transform="translate(-2409.99 -2339.83)"/><circle class="cls-2" cx="5.08" cy="4.47" r="1.12"/><path class="cls-3" d="M2424,2344.8h-5.17a.5.5,0,0,1,0-1H2424a.5.5,0,0,1,0,1Z" transform="translate(-2409.99 -2339.83)"/><path class="cls-4" d="M2422.88,2348h-3a.5.5,0,0,1-.5-.5.5.5,0,0,1,.5-.5h3a.5.5,0,0,1,.5.5A.5.5,0,0,1,2422.88,2348Z" transform="translate(-2409.99 -2339.83)"/><path class="cls-5" d="M2424.43,2340.47h-3v1h3a1,1,0,0,1,1,1v6.83a1,1,0,0,1-1,1H2412a1,1,0,0,1-1-1v-6.83a1,1,0,0,1,1-1H2415v-1H2412a2,2,0,0,0-2,2v6.83a2,2,0,0,0,2,2h12.43a2,2,0,0,0,2-2v-6.83A2,2,0,0,0,2424.43,2340.47Z" transform="translate(-2409.99 -2339.83)"/><rect class="cls-6" x="5.66" width="5.13" height="2.22" rx="0.66" ry="0.66"/></svg>