<svg xmlns="http://www.w3.org/2000/svg" viewBox="0 0 18 18">
    <linearGradient id="MyGradient">
        <stop offset="5%" stop-color="#ffde07" />
        <stop offset="95%" stop-color="#d98e4c" />
    </linearGradient>
    <path
        d="M5.45,8.26c-2.93,0-5.3,1.87-5.3,4.16v1.71h10.6V12.42C10.75,10.13,8.37,8.26,5.45,8.26Zm4.23,4.8H1.21v-.64c0-1.7,1.9-3.09,4.24-3.09s4.23,1.39,4.23,3.09Z"
        transform="translate(-0.15 -1.87)" fill="url(#MyGradient)"/>
    <path
        d="M5.45,7.56A2.85,2.85,0,1,0,2.6,4.72,2.84,2.84,0,0,0,5.45,7.56Zm0-4.62A1.78,1.78,0,1,1,3.67,4.72,1.78,1.78,0,0,1,5.45,2.94Z"
        transform="translate(-0.15 -1.87)" fill="url(#MyGradient)"/>
    <path
        d="M15.32,7.47h-1.9V5.56a.5.5,0,0,0-.5-.49.49.49,0,0,0-.5.49V7.47H10.51A.49.49,0,0,0,10,8a.5.5,0,0,0,.49.5h1.91v1.9a.5.5,0,0,0,.5.5.5.5,0,0,0,.5-.5V8.47h1.9a.5.5,0,0,0,.5-.5A.5.5,0,0,0,15.32,7.47Z"
        transform="translate(-0.15 -1.87)" fill="url(#MyGradient)"/>
</svg>