<svg id="Ebene_1" data-name="Ebene 1"
    xmlns="http://www.w3.org/2000/svg" viewBox="0 0 13.55 13.42">
    <defs>
        <style>.cls-1{fill:#9fa5ad;}</style>
    </defs>
    <title>Unbenannt-1</title>
    <path class="cls-1" d="M2506.93,2494.67h-1.64V2494a.5.5,0,0,0-.5-.5H2497a.5.5,0,0,0-.5.5v.69h-2.08a.5.5,0,0,0-.5.5v.94a3.43,3.43,0,0,0,2.92,3.63,4.45,4.45,0,0,0,2.65,2.45V2504h-1.15a2,2,0,0,0-2,2v.37a.5.5,0,0,0,.5.5H2505a.5.5,0,0,0,.5-.5V2506a2,2,0,0,0-2-2h-1.18v-1.81a4.45,4.45,0,0,0,2.65-2.45c1.4-.12,2.48-1.66,2.48-3.63v-.94A.5.5,0,0,0,2506.93,2494.67Zm-12,1.44v-.44h1.58V2498a3.71,3.71,0,0,0,.07.67A2.59,2.59,0,0,1,2494.89,2496.11Zm9.61,9.78h-7.21a1,1,0,0,1,1-.89h5.17A1,1,0,0,1,2504.5,2505.89Zm-3.2-3.45v1.48h-.84v-1.48h.84Zm3-4.41a3.41,3.41,0,0,1-3.37,3.41h-.08a3.41,3.41,0,0,1-3.37-3.41v-3.55h6.82Zm2.14-1.92a2.78,2.78,0,0,1-1.2,2.53,4.07,4.07,0,0,0,.06-.61v-2.36h1.14Z" transform="translate(-2493.89 -2493.48)"/>
    <path class="cls-1" d="M2501.43,2499.38h-.67v-2.52a2.26,2.26,0,0,1-.86.51v-.61a2.17,2.17,0,0,0,.57-.33,1.32,1.32,0,0,0,.42-.56h.54Z" transform="translate(-2493.89 -2493.48)"/>
</svg>