<svg id="Ebene_1" data-name="Ebene 1" xmlns="http://www.w3.org/2000/svg" xmlns:xlink="http://www.w3.org/1999/xlink" viewBox="0 0 12.65 12.65"><defs><style>.cls-1{fill:url(#Unbenannter_Verlauf_64);}.cls-2{fill:url(#Unbenannter_Verlauf_64-2);}.cls-3{fill:url(#Unbenannter_Verlauf_64-3);}</style><linearGradient id="Unbenannter_Verlauf_64" x1="2464.38" y1="2463.22" x2="2476.42" y2="2475.26" gradientUnits="userSpaceOnUse"><stop offset="0" stop-color="#ffdd08"/><stop offset="0.55" stop-color="#f6a811"/><stop offset="1" stop-color="#ef8118"/></linearGradient><linearGradient id="Unbenannter_Verlauf_64-2" x1="2467.8" y1="2459.79" x2="2479.84" y2="2471.83" xlink:href="#Unbenannter_Verlauf_64"/><linearGradient id="Unbenannter_Verlauf_64-3" x1="2469.7" y1="2457.89" x2="2481.74" y2="2469.94" xlink:href="#Unbenannter_Verlauf_64"/></defs><title>server-modules-gold</title><path class="cls-1" d="M2471.44,2472.71h-1.93a1.5,1.5,0,0,1-1.5-1.5v-3.79a1.5,1.5,0,0,1,1.5-1.5h1.93a1.5,1.5,0,0,1,1.5,1.5v3.79A1.5,1.5,0,0,1,2471.44,2472.71Zm-1.93-5.79a.5.5,0,0,0-.5.5v3.79a.51.51,0,0,0,.5.5h1.93a.51.51,0,0,0,.5-.5v-3.79a.5.5,0,0,0-.5-.5Z" transform="translate(-2468.01 -2460.06)"/><path class="cls-2" d="M2479.17,2472.71h-3.69a1.5,1.5,0,0,1-1.5-1.5v-3.79a1.5,1.5,0,0,1,1.5-1.5h3.69a1.5,1.5,0,0,1,1.5,1.5v3.79A1.5,1.5,0,0,1,2479.17,2472.71Zm-3.69-5.79a.5.5,0,0,0-.5.5v3.79a.5.5,0,0,0,.5.5h3.69a.51.51,0,0,0,.5-.5v-3.79a.5.5,0,0,0-.5-.5Z" transform="translate(-2468.01 -2460.06)"/><path class="cls-3" d="M2479.17,2465h-9.66a1.5,1.5,0,0,1-1.5-1.5v-2a1.51,1.51,0,0,1,1.5-1.5h9.66a1.5,1.5,0,0,1,1.5,1.5v2A1.5,1.5,0,0,1,2479.17,2465Zm-9.66-4a.51.51,0,0,0-.5.5v2a.5.5,0,0,0,.5.5h9.66a.5.5,0,0,0,.5-.5v-2a.51.51,0,0,0-.5-.5Z" transform="translate(-2468.01 -2460.06)"/></svg>