<svg xmlns="http://www.w3.org/2000/svg" viewBox="0 0 18 18">
    <path
        d="M8.62,15.53H7.38a1.72,1.72,0,0,1-1.71-1.71v-.2l-.14.14a1.75,1.75,0,0,1-2.41,0l-.88-.88a1.7,1.7,0,0,1,0-2.41l.14-.14h-.2A1.72,1.72,0,0,1,.47,8.62V7.38A1.72,1.72,0,0,1,2.18,5.67h.2l-.14-.14a1.7,1.7,0,0,1,0-2.41l.88-.88a1.7,1.7,0,0,1,2.41,0l.14.14v-.2A1.72,1.72,0,0,1,7.38.47H8.62a1.72,1.72,0,0,1,1.71,1.71v.2l.14-.14a1.75,1.75,0,0,1,2.41,0l.88.88a1.7,1.7,0,0,1,0,2.41l-.14.14h.2a1.72,1.72,0,0,1,1.71,1.71V8.62a1.72,1.72,0,0,1-1.71,1.71h-.2l.14.14a1.7,1.7,0,0,1,0,2.41l-.88.88a1.75,1.75,0,0,1-2.41,0l-.14-.14v.2A1.72,1.72,0,0,1,8.62,15.53ZM6.41,4.33a.65.65,0,0,1-.69-.13L4.65,3.12a.48.48,0,0,0-.65,0L3.12,4A.48.48,0,0,0,3,4.32a.49.49,0,0,0,.13.33L4.2,5.72a.63.63,0,0,1,.13.69.82.82,0,0,1-.63.51H2.18a.47.47,0,0,0-.46.46V8.62a.47.47,0,0,0,.46.46H3.7a.61.61,0,0,1,.58.39l0,.11a.68.68,0,0,1-.13.7L3.12,11.35a.46.46,0,0,0,0,.65l.88.88a.48.48,0,0,0,.65,0L5.72,11.8a.62.62,0,0,1,.44-.18.7.7,0,0,1,.25.05.82.82,0,0,1,.51.63v1.52a.47.47,0,0,0,.46.46H8.62a.47.47,0,0,0,.46-.46V12.29a.63.63,0,0,1,.4-.58l.11,0a.63.63,0,0,1,.69.13l1.07,1.08a.46.46,0,0,0,.65,0l.88-.88a.46.46,0,0,0,0-.65L11.8,10.28a.63.63,0,0,1-.13-.69.82.82,0,0,1,.63-.51h1.52a.47.47,0,0,0,.46-.46V7.38a.47.47,0,0,0-.46-.46H12.3a.61.61,0,0,1-.58-.39l-.05-.12a.67.67,0,0,1,.13-.69l1.08-1.07a.46.46,0,0,0,0-.65L12,3.12a.48.48,0,0,0-.65,0L10.28,4.2a.63.63,0,0,1-.69.13.82.82,0,0,1-.51-.63V2.18a.47.47,0,0,0-.46-.46H7.38a.47.47,0,0,0-.46.46V3.7a.61.61,0,0,1-.39.58Z"
        transform="translate(-0.47 -0.47)" fill="#9fa5ad"/>
    <path
        d="M8,10.93A2.93,2.93,0,1,1,10.93,8,2.94,2.94,0,0,1,8,10.93ZM8,6.32A1.68,1.68,0,1,0,9.68,8,1.69,1.69,0,0,0,8,6.32Z"
        transform="translate(-0.47 -0.47)" fill="#9fa5ad"/>
</svg>