<svg id="Ebene_1" data-name="Ebene 1" xmlns="http://www.w3.org/2000/svg" viewBox="0 0 12.65 12.65"><defs><style>.cls-1{fill:#9da4ac;}</style></defs><title>server-modules</title><path class="cls-1" d="M2472,2472.65h-1.92a1.5,1.5,0,0,1-1.5-1.5v-3.8a1.5,1.5,0,0,1,1.5-1.5H2472a1.5,1.5,0,0,1,1.5,1.5v3.8A1.5,1.5,0,0,1,2472,2472.65Zm-1.92-5.8a.5.5,0,0,0-.5.5v3.8a.5.5,0,0,0,.5.5H2472a.5.5,0,0,0,.5-.5v-3.8a.5.5,0,0,0-.5-.5Z" transform="translate(-2468.56 -2460)"/><path class="cls-1" d="M2479.71,2472.65H2476a1.5,1.5,0,0,1-1.5-1.5v-3.8a1.5,1.5,0,0,1,1.5-1.5h3.69a1.5,1.5,0,0,1,1.5,1.5v3.8A1.5,1.5,0,0,1,2479.71,2472.65Zm-3.69-5.8a.51.51,0,0,0-.5.5v3.8a.51.51,0,0,0,.5.5h3.69a.5.5,0,0,0,.5-.5v-3.8a.5.5,0,0,0-.5-.5Z" transform="translate(-2468.56 -2460)"/><path class="cls-1" d="M2479.71,2465h-9.65a1.5,1.5,0,0,1-1.5-1.5v-1.95a1.5,1.5,0,0,1,1.5-1.5h9.65a1.5,1.5,0,0,1,1.5,1.5v1.95A1.5,1.5,0,0,1,2479.71,2465Zm-9.65-3.95a.5.5,0,0,0-.5.5v1.95a.5.5,0,0,0,.5.5h9.65a.5.5,0,0,0,.5-.5v-1.95a.5.5,0,0,0-.5-.5Z" transform="translate(-2468.56 -2460)"/></svg>