<svg id="Ebene_1" data-name="Ebene 1" xmlns="http://www.w3.org/2000/svg" xmlns:xlink="http://www.w3.org/1999/xlink" viewBox="0 0 214.62 63.72"><defs><style>.cls-1{fill:#010101;stroke-width:2.16px;stroke:url(#Unbenannter_Verlauf_32);}.cls-1,.cls-10,.cls-11,.cls-12,.cls-15,.cls-16,.cls-4,.cls-5,.cls-6,.cls-7{stroke-miterlimit:10;}.cls-2{fill:url(#Unbenannter_Verlauf_32-2);}.cls-3{fill:url(#Unbenannter_Verlauf_32-3);}.cls-10,.cls-16,.cls-4,.cls-5,.cls-6,.cls-7{stroke:#1c1c1f;}.cls-4,.cls-6{stroke-width:0.51px;}.cls-4{fill:url(#Unbenannter_Verlauf_32-4);}.cls-16,.cls-5,.cls-7{stroke-width:0.71px;}.cls-5{fill:url(#Unbenannter_Verlauf_32-5);}.cls-6{fill:url(#Unbenannter_Verlauf_32-6);}.cls-7{fill:url(#Unbenannter_Verlauf_32-7);}.cls-8{fill:#313338;}.cls-9{fill:#1c1c1f;}.cls-10,.cls-15{fill:none;stroke-width:1.42px;}.cls-11,.cls-12{stroke:#313338;stroke-width:0.09px;}.cls-11{fill:url(#Unbenannter_Verlauf_32-8);}.cls-12{fill:url(#Unbenannter_Verlauf_9);}.cls-13{fill:#161616;}.cls-14{fill:#4e525a;}.cls-15{stroke:#151516;}.cls-15,.cls-16{stroke-linecap:round;}.cls-16{fill:url(#Unbenannter_Verlauf_32-9);}.cls-17{fill:#fff;}.cls-18{fill:url(#Unbenannter_Verlauf_32-10);}</style><linearGradient id="Unbenannter_Verlauf_32" x1="4.26" y1="15.93" x2="59.45" y2="47.79" gradientUnits="userSpaceOnUse"><stop offset="0" stop-color="#ffde0d"/><stop offset="0.55" stop-color="#f6aa14"/><stop offset="1" stop-color="#f08319"/></linearGradient><linearGradient id="Unbenannter_Verlauf_32-2" x1="-174.72" y1="4555.35" x2="-169.32" y2="4555.35" gradientTransform="translate(4587.57 189.22) rotate(90)" xlink:href="#Unbenannter_Verlauf_32"/><linearGradient id="Unbenannter_Verlauf_32-3" x1="27.28" y1="19.93" x2="37.16" y2="19.93" xlink:href="#Unbenannter_Verlauf_32"/><linearGradient id="Unbenannter_Verlauf_32-4" x1="14.24" y1="29.93" x2="9.09" y2="39.2" xlink:href="#Unbenannter_Verlauf_32"/><linearGradient id="Unbenannter_Verlauf_32-5" x1="15.9" y1="31.48" x2="11.14" y2="40.07" xlink:href="#Unbenannter_Verlauf_32"/><linearGradient id="Unbenannter_Verlauf_32-6" x1="3128.88" y1="7295.85" x2="3131.77" y2="7286.45" gradientTransform="translate(-914.91 -5703.28)" xlink:href="#Unbenannter_Verlauf_32"/><linearGradient id="Unbenannter_Verlauf_32-7" x1="3131.24" y1="7296.47" x2="3133.99" y2="7287.55" gradientTransform="translate(-920.08 -5703.08)" xlink:href="#Unbenannter_Verlauf_32"/><linearGradient id="Unbenannter_Verlauf_32-8" x1="2179.93" y1="1584.88" x2="2208.17" y2="1584.88" xlink:href="#Unbenannter_Verlauf_32"/><linearGradient id="Unbenannter_Verlauf_9" x1="2187.8" y1="1594.92" x2="2200.29" y2="1594.92" gradientUnits="userSpaceOnUse"><stop offset="0.01" stop-color="#ffde0d"/><stop offset="0.55" stop-color="#f6aa14"/><stop offset="1" stop-color="#f08319"/></linearGradient><linearGradient id="Unbenannter_Verlauf_32-9" x1="25.44" y1="44.3" x2="30.37" y2="44.3" xlink:href="#Unbenannter_Verlauf_32"/><linearGradient id="Unbenannter_Verlauf_32-10" x1="2276.88" y1="1562.47" x2="2330.5" y2="1612.61" xlink:href="#Unbenannter_Verlauf_32"/></defs><title>Unbenannt-2</title><circle class="cls-1" cx="31.86" cy="31.86" r="30.78"/><polygon class="cls-2" points="30.46 19.91 31.37 14.5 33.07 14.5 33.98 19.91 30.46 19.91"/><rect class="cls-3" x="27.28" y="17.77" width="9.88" height="4.33" rx="1.22" ry="1.22"/><rect class="cls-4" x="9.72" y="32.24" width="2.89" height="6.45" rx="1.22" ry="1.22"/><rect class="cls-5" x="11.41" y="29.91" width="4.67" height="10.91" rx="2.33" ry="2.33"/><rect class="cls-6" x="2213.5" y="1586.15" width="2.89" height="6.45" rx="1.22" ry="1.22" transform="translate(2268.13 1624.64) rotate(180)"/><rect class="cls-7" x="2210.03" y="1584.02" width="4.67" height="10.91" rx="2.33" ry="2.33" transform="translate(2262.97 1624.84) rotate(-180)"/><path class="cls-8" d="M2203.75,1601.46h-19.53c-4.28,0-6.76-4.41-7.23-7.63l-.51-5.87a14,14,0,0,1,13.95-13.94h7.36a13.74,13.74,0,0,1,13.7,13.69l-.51,6.12C2210.81,1597.32,2208,1601.46,2203.75,1601.46Z" transform="translate(-2161.76 -1554.11)"/><path class="cls-9" d="M2205,1600.17l-19.08.06c-4.27,0-6.69-4.08-7.16-7.31l-.51-5.86a14,14,0,0,1,6.67-11.88,14,14,0,0,0-8.4,12.78l.51,5.87c.47,3.22,3,7.63,7.23,7.63h19.53a6.41,6.41,0,0,0,5.07-2.4A14.66,14.66,0,0,1,2205,1600.17Z" transform="translate(-2161.76 -1554.11)"/><path class="cls-10" d="M2175.26,1584.36c.25-10.82,4.68-10.82,18.76-10.82,12.77,0,18.15-.2,18.57,10.69" transform="translate(-2161.76 -1554.11)"/><path class="cls-11" d="M2208.17,1587.91h0a8.43,8.43,0,0,0-8.41-8.4h-11.43a8.42,8.42,0,0,0-8.4,8.4h0a2.35,2.35,0,0,0,2.34,2.35h23.56A2.35,2.35,0,0,0,2208.17,1587.91Z" transform="translate(-2161.76 -1554.11)"/><path class="cls-12" d="M2194.05,1597.84a6.05,6.05,0,0,0,6.24-5.84H2187.8A6.06,6.06,0,0,0,2194.05,1597.84Z" transform="translate(-2161.76 -1554.11)"/><path d="M2187.27,1585.88a4.78,4.78,0,0,1,3.38,1.4.18.18,0,0,0,.3-.16,3.79,3.79,0,0,0-7.36,0,.18.18,0,0,0,.31.16A4.75,4.75,0,0,1,2187.27,1585.88Z" transform="translate(-2161.76 -1554.11)"/><path d="M2200.7,1585.88a4.77,4.77,0,0,1,3.37,1.4.18.18,0,0,0,.3-.16,3.78,3.78,0,0,0-7.35,0,.18.18,0,0,0,.3.16A4.78,4.78,0,0,1,2200.7,1585.88Z" transform="translate(-2161.76 -1554.11)"/><path class="cls-8" d="M2191.84,1568.48a2.66,2.66,0,1,0,.67-3.7,2.66,2.66,0,0,0-.67,3.7" transform="translate(-2161.76 -1554.11)"/><path class="cls-9" d="M2195.54,1569.15a2.84,2.84,0,0,1-.57.3,2.66,2.66,0,0,1-2.27-.18,2.58,2.58,0,0,1-.86-.79,2.65,2.65,0,0,1,.67-3.7h.08a2.25,2.25,0,0,1,.46-.24,2.66,2.66,0,0,0,3,4.25,3.07,3.07,0,0,1-.38.34h-.09" transform="translate(-2161.76 -1554.11)"/><path class="cls-13" d="M2196,1568.74a2.64,2.64,0,0,1-4.46-2.53,2.7,2.7,0,0,1,1.5-1.72,2.68,2.68,0,1,0,3,4.25Z" transform="translate(-2161.76 -1554.11)"/><path class="cls-14" d="M2195.43,1567.07a1.1,1.1,0,1,1,.28-1.53,1.11,1.11,0,0,1-.28,1.53" transform="translate(-2161.76 -1554.11)"/><path class="cls-15" d="M2175.16,1590.69c.05,4.16,3.53,5.66,4.54,6.13a33.81,33.81,0,0,0,7.58,1.59" transform="translate(-2161.76 -1554.11)"/><rect class="cls-16" x="25.44" y="42.94" width="4.92" height="2.71" rx="1.22" ry="1.22"/><path class="cls-17" d="M2188.12,1593.84H2200a5.39,5.39,0,0,0,.32-1.84H2187.8A5.65,5.65,0,0,0,2188.12,1593.84Z" transform="translate(-2161.76 -1554.11)"/><path class="cls-14" d="M2204.18,1579.07a33.58,33.58,0,0,1-3.32-.67c-2.49-.62-4.59-1.2-4.59-1.92s1.64-1.07,3.82-.82a10.19,10.19,0,0,1,1.37.25c2.82.68,4.68,2.27,4.35,2.89-.17.31-.76.37-1.63.27" transform="translate(-2161.76 -1554.11)"/><path d="M2250.63,1607a15.84,15.84,0,0,1-4.69-.69,13.34,13.34,0,0,1-4.1-2.08,14.33,14.33,0,0,1-3.25-3.38,16.3,16.3,0,0,1-2.18-4.66l6.76-2.66a10.37,10.37,0,0,0,2.61,4.77,6.58,6.58,0,0,0,4.9,1.89,7.72,7.72,0,0,0,2.16-.3,6.32,6.32,0,0,0,1.86-.85,4.11,4.11,0,0,0,1.31-1.41,4,4,0,0,0,.48-2,4.9,4.9,0,0,0-.37-1.92,4.5,4.5,0,0,0-1.26-1.6,11.21,11.21,0,0,0-2.29-1.43,30.83,30.83,0,0,0-3.49-1.44l-2.34-.85a18.36,18.36,0,0,1-3.11-1.44,14.19,14.19,0,0,1-2.86-2.19,10.68,10.68,0,0,1-2.1-3,9,9,0,0,1-.83-3.91,10,10,0,0,1,3.39-7.59,11.64,11.64,0,0,1,3.89-2.29,16.06,16.06,0,0,1,10-.06,12.45,12.45,0,0,1,3.57,2,11,11,0,0,1,2.37,2.63,12.78,12.78,0,0,1,1.33,2.72l-6.34,2.66a6.7,6.7,0,0,0-1.94-2.87,5.5,5.5,0,0,0-3.86-1.28,6.55,6.55,0,0,0-3.89,1.09,3.35,3.35,0,0,0-1.55,2.85,3.61,3.61,0,0,0,1.49,2.9,16.49,16.49,0,0,0,4.74,2.32l2.4.8a26.33,26.33,0,0,1,4.18,1.84,12.91,12.91,0,0,1,3.25,2.47,10,10,0,0,1,2.08,3.28,11.5,11.5,0,0,1,.72,4.23,10.42,10.42,0,0,1-1.2,5.14,11,11,0,0,1-3.06,3.54,13.26,13.26,0,0,1-4.21,2.08A16.16,16.16,0,0,1,2250.63,1607Z" transform="translate(-2161.76 -1554.11)"/><path d="M2268.53,1580.08h6.55v3.14h.42a8,8,0,0,1,3-2.82,9.84,9.84,0,0,1,5-1.17,11.35,11.35,0,0,1,4.77,1,12.72,12.72,0,0,1,4,2.88,13.68,13.68,0,0,1,2.74,4.39,16,16,0,0,1,0,11.19,13.9,13.9,0,0,1-2.74,4.39,13,13,0,0,1-4,2.88,11.34,11.34,0,0,1-4.77,1,9.84,9.84,0,0,1-5-1.17,7.93,7.93,0,0,1-3-2.82h-.42l.42,3.73v10.92h-7Zm13.53,20.51a6.72,6.72,0,0,0,2.63-.53,7,7,0,0,0,2.21-1.49,7.23,7.23,0,0,0,1.55-2.35,8.52,8.52,0,0,0,0-6.18,7.3,7.3,0,0,0-1.55-2.34,6.79,6.79,0,0,0-2.21-1.49,6.55,6.55,0,0,0-2.63-.54,6.9,6.9,0,0,0-2.64.51,6.58,6.58,0,0,0-2.21,1.47,7.3,7.3,0,0,0-1.55,2.34,8,8,0,0,0-.58,3.14,8.08,8.08,0,0,0,.58,3.15,7.3,7.3,0,0,0,1.55,2.34,6.41,6.41,0,0,0,2.21,1.46A6.9,6.9,0,0,0,2282.06,1600.59Z" transform="translate(-2161.76 -1554.11)"/><path d="M2316.57,1603.41h-.42a11.81,11.81,0,0,1-3,2.56,8.4,8.4,0,0,1-4.45,1.06,10.9,10.9,0,0,1-3.81-.66,9.93,9.93,0,0,1-3.11-1.84,8.22,8.22,0,0,1-2.08-2.82,8.66,8.66,0,0,1-.75-3.62,8.19,8.19,0,0,1,.8-3.65,8.31,8.31,0,0,1,2.24-2.8,10.19,10.19,0,0,1,3.38-1.78,14,14,0,0,1,4.24-.62,18.66,18.66,0,0,1,4.2.4,21.15,21.15,0,0,1,2.72.83v-.8a4.28,4.28,0,0,0-1.65-3.44,6.27,6.27,0,0,0-4.1-1.35,7.67,7.67,0,0,0-6.13,3l-5.06-3.46a13.72,13.72,0,0,1,11.35-5.22q6.08,0,9.27,2.85t3.19,8.44v15.66h-6.87Zm0-7.83a14.5,14.5,0,0,0-2.53-.93,11.13,11.13,0,0,0-2.85-.35,6,6,0,0,0-3.86,1.1,3.3,3.3,0,0,0-1.36,2.69,3,3,0,0,0,1.31,2.55,4.94,4.94,0,0,0,3,1,6.35,6.35,0,0,0,4.55-1.84,5.88,5.88,0,0,0,1.73-4.18Z" transform="translate(-2161.76 -1554.11)"/><path d="M2329,1580.08h6.55v3.62h.43a6.9,6.9,0,0,1,1.28-1.75,9,9,0,0,1,1.78-1.4,10.23,10.23,0,0,1,2.13-1,7.28,7.28,0,0,1,2.27-.37,8.23,8.23,0,0,1,2.37.3,6,6,0,0,1,1.67.76l-1.86,6.24a6.72,6.72,0,0,0-1.41-.51,8.48,8.48,0,0,0-1.89-.19,5.88,5.88,0,0,0-2.61.57,5.68,5.68,0,0,0-2,1.58,7.45,7.45,0,0,0-1.28,2.38,9.43,9.43,0,0,0-.45,3v12.85h-7Z" transform="translate(-2161.76 -1554.11)"/><path d="M2350.93,1568h7v20.78h.32l8.74-8.74h8.63v.43l-9.7,9.43,10.5,15.82v.42h-8.26l-7.14-11.45-3.09,3v8.41h-7Z" transform="translate(-2161.76 -1554.11)"/><path class="cls-18" d="M2250.63,1607a15.84,15.84,0,0,1-4.69-.69,13.34,13.34,0,0,1-4.1-2.08,14.33,14.33,0,0,1-3.25-3.38,16.3,16.3,0,0,1-2.18-4.66l6.76-2.66a10.37,10.37,0,0,0,2.61,4.77,6.58,6.58,0,0,0,4.9,1.89,7.72,7.72,0,0,0,2.16-.3,6.32,6.32,0,0,0,1.86-.85,4.11,4.11,0,0,0,1.31-1.41,4,4,0,0,0,.48-2,4.9,4.9,0,0,0-.37-1.92,4.5,4.5,0,0,0-1.26-1.6,11.21,11.21,0,0,0-2.29-1.43,30.83,30.83,0,0,0-3.49-1.44l-2.34-.85a18.36,18.36,0,0,1-3.11-1.44,14.19,14.19,0,0,1-2.86-2.19,10.68,10.68,0,0,1-2.1-3,9,9,0,0,1-.83-3.91,10,10,0,0,1,3.39-7.59,11.64,11.64,0,0,1,3.89-2.29,16.06,16.06,0,0,1,10-.06,12.45,12.45,0,0,1,3.57,2,11,11,0,0,1,2.37,2.63,12.78,12.78,0,0,1,1.33,2.72l-6.34,2.66a6.7,6.7,0,0,0-1.94-2.87,5.5,5.5,0,0,0-3.86-1.28,6.55,6.55,0,0,0-3.89,1.09,3.35,3.35,0,0,0-1.55,2.85,3.61,3.61,0,0,0,1.49,2.9,16.49,16.49,0,0,0,4.74,2.32l2.4.8a26.33,26.33,0,0,1,4.18,1.84,12.91,12.91,0,0,1,3.25,2.47,10,10,0,0,1,2.08,3.28,11.5,11.5,0,0,1,.72,4.23,10.42,10.42,0,0,1-1.2,5.14,11,11,0,0,1-3.06,3.54,13.26,13.26,0,0,1-4.21,2.08A16.16,16.16,0,0,1,2250.63,1607Z" transform="translate(-2161.76 -1554.11)"/><path class="cls-18" d="M2268.53,1580.08h6.55v3.14h.42a8,8,0,0,1,3-2.82,9.84,9.84,0,0,1,5-1.17,11.35,11.35,0,0,1,4.77,1,12.72,12.72,0,0,1,4,2.88,13.68,13.68,0,0,1,2.74,4.39,16,16,0,0,1,0,11.19,13.9,13.9,0,0,1-2.74,4.39,13,13,0,0,1-4,2.88,11.34,11.34,0,0,1-4.77,1,9.84,9.84,0,0,1-5-1.17,7.93,7.93,0,0,1-3-2.82h-.42l.42,3.73v10.92h-7Zm13.53,20.51a6.72,6.72,0,0,0,2.63-.53,7,7,0,0,0,2.21-1.49,7.23,7.23,0,0,0,1.55-2.35,8.52,8.52,0,0,0,0-6.18,7.3,7.3,0,0,0-1.55-2.34,6.79,6.79,0,0,0-2.21-1.49,6.55,6.55,0,0,0-2.63-.54,6.9,6.9,0,0,0-2.64.51,6.58,6.58,0,0,0-2.21,1.47,7.3,7.3,0,0,0-1.55,2.34,8,8,0,0,0-.58,3.14,8.08,8.08,0,0,0,.58,3.15,7.3,7.3,0,0,0,1.55,2.34,6.41,6.41,0,0,0,2.21,1.46A6.9,6.9,0,0,0,2282.06,1600.59Z" transform="translate(-2161.76 -1554.11)"/><path class="cls-18" d="M2316.57,1603.41h-.42a11.81,11.81,0,0,1-3,2.56,8.4,8.4,0,0,1-4.45,1.06,10.9,10.9,0,0,1-3.81-.66,9.93,9.93,0,0,1-3.11-1.84,8.22,8.22,0,0,1-2.08-2.82,8.66,8.66,0,0,1-.75-3.62,8.19,8.19,0,0,1,.8-3.65,8.31,8.31,0,0,1,2.24-2.8,10.19,10.19,0,0,1,3.38-1.78,14,14,0,0,1,4.24-.62,18.66,18.66,0,0,1,4.2.4,21.15,21.15,0,0,1,2.72.83v-.8a4.28,4.28,0,0,0-1.65-3.44,6.27,6.27,0,0,0-4.1-1.35,7.67,7.67,0,0,0-6.13,3l-5.06-3.46a13.72,13.72,0,0,1,11.35-5.22q6.08,0,9.27,2.85t3.19,8.44v15.66h-6.87Zm0-7.83a14.5,14.5,0,0,0-2.53-.93,11.13,11.13,0,0,0-2.85-.35,6,6,0,0,0-3.86,1.1,3.3,3.3,0,0,0-1.36,2.69,3,3,0,0,0,1.31,2.55,4.94,4.94,0,0,0,3,1,6.35,6.35,0,0,0,4.55-1.84,5.88,5.88,0,0,0,1.73-4.18Z" transform="translate(-2161.76 -1554.11)"/><path class="cls-18" d="M2329,1580.08h6.55v3.62h.43a6.9,6.9,0,0,1,1.28-1.75,9,9,0,0,1,1.78-1.4,10.23,10.23,0,0,1,2.13-1,7.28,7.28,0,0,1,2.27-.37,8.23,8.23,0,0,1,2.37.3,6,6,0,0,1,1.67.76l-1.86,6.24a6.72,6.72,0,0,0-1.41-.51,8.48,8.48,0,0,0-1.89-.19,5.88,5.88,0,0,0-2.61.57,5.68,5.68,0,0,0-2,1.58,7.45,7.45,0,0,0-1.28,2.38,9.43,9.43,0,0,0-.45,3v12.85h-7Z" transform="translate(-2161.76 -1554.11)"/><path class="cls-18" d="M2350.93,1568h7v20.78h.32l8.74-8.74h8.63v.43l-9.7,9.43,10.5,15.82v.42h-8.26l-7.14-11.45-3.09,3v8.41h-7Z" transform="translate(-2161.76 -1554.11)"/></svg>