<svg id="Ebene_1" data-name="Ebene 1" xmlns="http://www.w3.org/2000/svg" viewBox="0 0 11.59 16.5"><defs><style>.cls-1{fill:#9fa5ad;}</style></defs><title>Unbenannt-3</title><path class="cls-1" d="M1782.69,1979.53a11.93,11.93,0,0,0-1.44-3.89,11.81,11.81,0,0,0-5.44-4.64c.37,2.36-.14,3.68-.7,4.45-.39.56-.7.68-2,2.17a8.51,8.51,0,0,0-1.43,2,5.59,5.59,0,0,0-.42,2.77,5.8,5.8,0,0,0,5.12,5.08,5.81,5.81,0,0,0,3.46-.71,5.7,5.7,0,0,0,2.14-2.09,6.26,6.26,0,0,0,.73-2.06c.06-.31.09-.58.11-.78A12,12,0,0,0,1782.69,1979.53Zm-2.86,4.26a3,3,0,0,1-.79,1.72,2.73,2.73,0,0,1-1.62.84,2.61,2.61,0,0,1-1.64-.33,2.73,2.73,0,0,1-1-1,3.1,3.1,0,0,1-.35-1,3.79,3.79,0,0,1-.05-.39,5.53,5.53,0,0,1,.08-1.14,6.12,6.12,0,0,1,.67-2,5.8,5.8,0,0,1,2.57-2.34,3,3,0,0,0,.34,2.22c.19.28.33.34.93,1.07a3.79,3.79,0,0,1,.68,1A2.88,2.88,0,0,1,1779.83,1983.79Z" transform="translate(-1771.27 -1971)"/></svg>