<svg xmlns="http://www.w3.org/2000/svg" viewBox="0 0 18 18">
    <path
        d="M8,.13A7.88,7.88,0,1,0,15.88,8,7.88,7.88,0,0,0,8,.13Zm6.59,7.25H9.51l3.59-3.6A6.52,6.52,0,0,1,14.59,7.38Zm-6-6A6.52,6.52,0,0,1,12.22,2.9L8.63,6.49ZM7.38,6.49,3.78,2.9a6.52,6.52,0,0,1,3.6-1.49Zm0,8.1a6.52,6.52,0,0,1-3.6-1.49l3.6-3.59ZM8.63,9.51l3.59,3.59a6.52,6.52,0,0,1-3.59,1.49ZM2.9,3.78l3.59,3.6H1.41A6.52,6.52,0,0,1,2.9,3.78ZM1.41,8.63H6.49L2.9,12.22A6.52,6.52,0,0,1,1.41,8.63ZM13.1,12.22,9.51,8.63h5.08A6.52,6.52,0,0,1,13.1,12.22Z"
        transform="translate(-0.13 -0.13)" fill="#9fa5ad"/>
</svg>