<svg id="Ebene_1" data-name="Ebene 1" xmlns="http://www.w3.org/2000/svg" xmlns:xlink="http://www.w3.org/1999/xlink" viewBox="0 0 14.69 13.18"><defs><style>.cls-1{fill:url(#Unbenannter_Verlauf_64);}.cls-2{fill:url(#Unbenannter_Verlauf_64-2);}</style><linearGradient id="Unbenannter_Verlauf_64" x1="2490.03" y1="2497.03" x2="2499.12" y2="2507.2" gradientUnits="userSpaceOnUse"><stop offset="0" stop-color="#ffdd08"/><stop offset="0.55" stop-color="#f6a811"/><stop offset="1" stop-color="#ef8118"/></linearGradient><linearGradient id="Unbenannter_Verlauf_64-2" x1="1.61" y1="6.07" x2="10.7" y2="16.23" xlink:href="#Unbenannter_Verlauf_64"/></defs><title>admin-tools-gold</title><path class="cls-1" d="M2497.53,2503.88H2487a.5.5,0,0,1-.49-.37l-1.59-5.92a.5.5,0,0,1,.82-.5l3.5,3.22,2.53-5.92a.5.5,0,0,1,.46-.31h0a.51.51,0,0,1,.46.3l2.61,6,3.45-3.22a.51.51,0,0,1,.6-.06.49.49,0,0,1,.22.56l-1.59,5.89A.5.5,0,0,1,2497.53,2503.88Zm-10.12-1h9.73l1-3.83-2.69,2.51a.48.48,0,0,1-.44.12.5.5,0,0,1-.36-.29l-2.42-5.55-2.36,5.52a.5.5,0,0,1-.36.29.51.51,0,0,1-.44-.12l-2.74-2.53Z" transform="translate(-2484.93 -2494.08)"/><rect class="cls-2" x="1.64" y="11.8" width="11.43" height="1.39" rx="0.37" ry="0.37"/></svg>