<svg id="Ebene_1" data-name="Ebene 1" xmlns="http://www.w3.org/2000/svg" viewBox="0 0 13.36 13.41"><defs><style>.cls-1{fill:#9da4ac;}</style></defs><title>store</title><path class="cls-1" d="M2505.1,2497.42a.5.5,0,0,0-.49-.42h-1.11v-.36a3.51,3.51,0,0,0-6.95,0v.36h-1.1a.51.51,0,0,0-.5.42l-1.6,9a.52.52,0,0,0,.11.4.49.49,0,0,0,.38.18h12.37a.46.46,0,0,0,.38-.18.46.46,0,0,0,.11-.4Zm-7.55-.78a2.52,2.52,0,0,1,4.95,0v.36h-4.95Zm-3.11,9.38,1.43-8h.68v1.43a.72.72,0,0,0-.2.49.7.7,0,0,0,1.4,0,.72.72,0,0,0-.2-.49V2498h4.95v1.43a.71.71,0,0,0-.19.49.7.7,0,1,0,1.39,0,.68.68,0,0,0-.2-.49V2498h.69l1.42,8Z" transform="translate(-2493.34 -2493.61)"/></svg>