<svg id="Ebene_1" data-name="Ebene 1" xmlns="http://www.w3.org/2000/svg" xmlns:xlink="http://www.w3.org/1999/xlink" viewBox="0 0 11.25 12.89"><defs><style>.cls-1{fill:url(#Unbenannter_Verlauf_64);}.cls-2{fill:url(#Unbenannter_Verlauf_64-2);}.cls-3{fill:url(#Unbenannter_Verlauf_64-3);}.cls-4{fill:url(#Unbenannter_Verlauf_64-4);}</style><linearGradient id="Unbenannter_Verlauf_64" x1="2467.83" y1="2460.32" x2="2479.02" y2="2473.51" gradientUnits="userSpaceOnUse"><stop offset="0" stop-color="#ffdd08"/><stop offset="0.55" stop-color="#f6a811"/><stop offset="1" stop-color="#ef8118"/></linearGradient><linearGradient id="Unbenannter_Verlauf_64-2" x1="2468.65" y1="2459.63" x2="2479.84" y2="2472.81" xlink:href="#Unbenannter_Verlauf_64"/><linearGradient id="Unbenannter_Verlauf_64-3" x1="2468.58" y1="2459.69" x2="2479.76" y2="2472.88" xlink:href="#Unbenannter_Verlauf_64"/><linearGradient id="Unbenannter_Verlauf_64-4" x1="2467.33" y1="2460.74" x2="2478.52" y2="2473.93" xlink:href="#Unbenannter_Verlauf_64"/></defs><title>inventory-system-gold</title><path class="cls-1" d="M2479.58,2463.63l-3.8-3.8a.47.47,0,0,0-.35-.15H2470a1.5,1.5,0,0,0-1.5,1.5v9.89a1.5,1.5,0,0,0,1.5,1.5h8.25a1.5,1.5,0,0,0,1.5-1.5V2464A.51.51,0,0,0,2479.58,2463.63Zm-3.87-2.46,2.44,2.44h-2.44Zm2.52,10.4H2470a.5.5,0,0,1-.5-.5v-9.89a.5.5,0,0,1,.5-.5h4.73v3.43a.5.5,0,0,0,.5.5h3.52v6.46A.5.5,0,0,1,2478.23,2471.57Z" transform="translate(-2468.48 -2459.68)"/><path class="cls-2" d="M2473.25,2464.18h-2.31a.5.5,0,0,1-.5-.5.5.5,0,0,1,.5-.5h2.31a.51.51,0,0,1,.5.5A.5.5,0,0,1,2473.25,2464.18Z" transform="translate(-2468.48 -2459.68)"/><path class="cls-3" d="M2477.38,2466.7h-6.56a.5.5,0,0,1-.5-.5.5.5,0,0,1,.5-.5h6.56a.5.5,0,0,1,.5.5A.5.5,0,0,1,2477.38,2466.7Z" transform="translate(-2468.48 -2459.68)"/><path class="cls-4" d="M2477.38,2469.22h-6.56a.5.5,0,0,1-.5-.5.5.5,0,0,1,.5-.5h6.56a.5.5,0,0,1,.5.5A.5.5,0,0,1,2477.38,2469.22Z" transform="translate(-2468.48 -2459.68)"/></svg>