<svg id="Ebene_1" data-name="Ebene 1" xmlns="http://www.w3.org/2000/svg" viewBox="0 0 11.25 12.89"><defs><style>.cls-1{fill:#9da4ac;}</style></defs><title>inventory-system</title><path class="cls-1" d="M2479.61,2463.63l-3.79-3.8a.51.51,0,0,0-.36-.15H2470a1.5,1.5,0,0,0-1.5,1.5v9.89a1.5,1.5,0,0,0,1.5,1.5h8.25a1.5,1.5,0,0,0,1.5-1.5V2464A.47.47,0,0,0,2479.61,2463.63Zm-3.87-2.46,2.44,2.44h-2.44Zm2.52,10.4H2470a.5.5,0,0,1-.5-.5v-9.89a.5.5,0,0,1,.5-.5h4.73v3.43a.5.5,0,0,0,.5.5h3.52v6.46A.5.5,0,0,1,2478.26,2471.57Z" transform="translate(-2468.51 -2459.68)"/><path class="cls-1" d="M2473.28,2464.18H2471a.5.5,0,0,1-.5-.5.5.5,0,0,1,.5-.5h2.31a.5.5,0,0,1,.5.5A.5.5,0,0,1,2473.28,2464.18Z" transform="translate(-2468.51 -2459.68)"/><path class="cls-1" d="M2477.41,2466.7h-6.56a.5.5,0,0,1-.5-.5.51.51,0,0,1,.5-.5h6.56a.5.5,0,0,1,.5.5A.5.5,0,0,1,2477.41,2466.7Z" transform="translate(-2468.51 -2459.68)"/><path class="cls-1" d="M2477.41,2469.22h-6.56a.5.5,0,0,1-.5-.5.51.51,0,0,1,.5-.5h6.56a.5.5,0,0,1,.5.5A.5.5,0,0,1,2477.41,2469.22Z" transform="translate(-2468.51 -2459.68)"/></svg>