<svg id="Ebene_1" data-name="Ebene 1" xmlns="http://www.w3.org/2000/svg" xmlns:xlink="http://www.w3.org/1999/xlink" viewBox="0 0 13.55 13.42"><defs><style>.cls-1{fill:url(#Unbenannter_Verlauf_32);}.cls-2{fill:url(#Unbenannter_Verlauf_32-2);}</style><linearGradient id="Unbenannter_Verlauf_32" x1="2476.52" y1="2495.55" x2="2488.73" y2="2507.59" gradientUnits="userSpaceOnUse"><stop offset="0" stop-color="#ffde0d"/><stop offset="0.55" stop-color="#f6aa14"/><stop offset="1" stop-color="#f08319"/></linearGradient><linearGradient id="Unbenannter_Verlauf_32-2" x1="2477.73" y1="2494.33" x2="2489.93" y2="2506.37" xlink:href="#Unbenannter_Verlauf_32"/></defs><title>Unbenannt-1</title><path class="cls-1" d="M2488.93,2496.67h-1.64V2496a.5.5,0,0,0-.5-.5H2479a.5.5,0,0,0-.5.5v.69h-2.08a.5.5,0,0,0-.5.5v.94a3.43,3.43,0,0,0,2.92,3.63,4.45,4.45,0,0,0,2.65,2.45V2506h-1.15a2,2,0,0,0-2,2v.37a.5.5,0,0,0,.5.5H2487a.5.5,0,0,0,.5-.5V2508a2,2,0,0,0-2-2h-1.18v-1.81a4.45,4.45,0,0,0,2.65-2.45c1.4-.12,2.48-1.66,2.48-3.63v-.94A.5.5,0,0,0,2488.93,2496.67Zm-12,1.44v-.44h1.58V2500a3.71,3.71,0,0,0,.07.67A2.59,2.59,0,0,1,2476.89,2498.11Zm9.61,9.78h-7.21a1,1,0,0,1,1-.89h5.17A1,1,0,0,1,2486.5,2507.89Zm-3.2-3.45v1.48h-.84v-1.48h.84Zm3-4.41a3.41,3.41,0,0,1-3.37,3.41h-.08a3.41,3.41,0,0,1-3.37-3.41v-3.55h6.82Zm2.14-1.92a2.78,2.78,0,0,1-1.2,2.53,4.07,4.07,0,0,0,.06-.61v-2.36h1.14Z" transform="translate(-2475.89 -2495.48)"/><path class="cls-2" d="M2483.43,2501.38h-.67v-2.52a2.26,2.26,0,0,1-.86.51v-.61a2.17,2.17,0,0,0,.57-.33,1.32,1.32,0,0,0,.42-.56h.54Z" transform="translate(-2475.89 -2495.48)"/></svg>