<svg id="Ebene_1" data-name="Ebene 1" xmlns="http://www.w3.org/2000/svg" viewBox="0 0 14.84 14.84"><defs><style>.cls-1{fill:#9ea4ac;}</style></defs><title>server-settings</title><path class="cls-1" d="M2153.44,2593.32H2153l.32-.32a1.62,1.62,0,0,0,0-2.27l-.88-.87a1.59,1.59,0,0,0-1.13-.47h0a1.59,1.59,0,0,0-1.13.47l-.32.32v-.46a1.6,1.6,0,0,0-1.6-1.6H2147a1.61,1.61,0,0,0-1.61,1.6v.46l-.32-.32a1.59,1.59,0,0,0-2.26,0l-.88.87a1.62,1.62,0,0,0,0,2.27l.32.32h-.45a1.6,1.6,0,0,0-1.6,1.6v1.24a1.59,1.59,0,0,0,1.6,1.6h.45l-.32.32a1.63,1.63,0,0,0-.47,1.14,1.59,1.59,0,0,0,.47,1.13l.88.88a1.61,1.61,0,0,0,2.26,0l.32-.32v.45a1.61,1.61,0,0,0,1.61,1.6h1.24a1.6,1.6,0,0,0,1.6-1.6v-.45l.32.32a1.64,1.64,0,0,0,2.26,0l.88-.88a1.59,1.59,0,0,0,.47-1.13,1.63,1.63,0,0,0-.47-1.14l-.32-.32h.45a1.59,1.59,0,0,0,1.6-1.6v-1.24A1.6,1.6,0,0,0,2153.44,2593.32Zm.57,2.84a.58.58,0,0,1-.57.57h-1.52c-.21,0-.44.25-.52.44a.52.52,0,0,0,.11.58l1.07,1.07a.57.57,0,0,1,0,.8l-.88.87a.57.57,0,0,1-.8,0l-1.07-1.07a.55.55,0,0,0-.52-.11h0l-.16.06a.52.52,0,0,0-.33.48v1.52a.57.57,0,0,1-.56.57H2147a.57.57,0,0,1-.57-.57v-1.52a.7.7,0,0,0-.44-.52.54.54,0,0,0-.21-.05.51.51,0,0,0-.37.15l-1.07,1.07a.57.57,0,0,1-.8,0l-.88-.88a.59.59,0,0,1-.16-.4.58.58,0,0,1,.16-.4l1.08-1.07a.76.76,0,0,0,.06-.69.5.5,0,0,0-.48-.33h-1.52a.58.58,0,0,1-.57-.57v-1.24a.57.57,0,0,1,.57-.56h1.52c.21,0,.44-.26.52-.45a.5.5,0,0,0-.1-.57l-1.08-1.07a.59.59,0,0,1-.16-.4.56.56,0,0,1,.16-.4l.88-.88a.57.57,0,0,1,.8,0l1.07,1.07a.53.53,0,0,0,.55.11h0l.11,0h0a.52.52,0,0,0,.3-.46v-1.53a.56.56,0,0,1,.57-.56h1.24a.56.56,0,0,1,.56.56v1.53c0,.2.26.44.45.52a.53.53,0,0,0,.57-.11l1.07-1.07a.6.6,0,0,1,.4-.17h0a.56.56,0,0,1,.4.17l.88.88a.57.57,0,0,1,0,.8l-1.07,1.07a.73.73,0,0,0-.07.69.52.52,0,0,0,.48.33h1.52a.57.57,0,0,1,.57.56Z" transform="translate(-2140.21 -2588.12)"/><path class="cls-1" d="M2147.63,2592.62a2.93,2.93,0,1,0,2.92,2.92A2.93,2.93,0,0,0,2147.63,2592.62Zm0,4.6a1.68,1.68,0,1,1,1.67-1.68A1.68,1.68,0,0,1,2147.63,2597.22Z" transform="translate(-2140.21 -2588.12)"/></svg>