<svg id="Ebene_1" data-name="Ebene 1" xmlns="http://www.w3.org/2000/svg" xmlns:xlink="http://www.w3.org/1999/xlink" viewBox="0 0 14.84 14.84"><defs><style>.cls-1{fill:url(#Unbenannter_Verlauf_64);}.cls-2{fill:url(#Unbenannter_Verlauf_64-2);}</style><linearGradient id="Unbenannter_Verlauf_64" x1="2141.98" y1="2588.76" x2="2151.98" y2="2600.93" gradientUnits="userSpaceOnUse"><stop offset="0" stop-color="#ffdd08"/><stop offset="0.55" stop-color="#f6a811"/><stop offset="1" stop-color="#ef8118"/></linearGradient><linearGradient id="Unbenannter_Verlauf_64-2" x1="2141.98" y1="2588.76" x2="2151.98" y2="2600.93" xlink:href="#Unbenannter_Verlauf_64"/></defs><title>server-settings-gold</title><path class="cls-1" d="M2153,2592.91h-.46l.32-.32a1.6,1.6,0,0,0,0-2.27l-.87-.88a1.6,1.6,0,0,0-1.14-.46h0a1.58,1.58,0,0,0-1.13.46l-.32.32v-.45a1.6,1.6,0,0,0-1.6-1.6h-1.24a1.6,1.6,0,0,0-1.6,1.6v.45l-.32-.32a1.62,1.62,0,0,0-2.27,0l-.88.88a1.62,1.62,0,0,0,0,2.27l.32.32h-.45a1.6,1.6,0,0,0-1.6,1.6v1.24a1.6,1.6,0,0,0,1.6,1.6h.45l-.32.32a1.58,1.58,0,0,0-.46,1.13,1.62,1.62,0,0,0,.46,1.14l.88.87a1.6,1.6,0,0,0,2.27,0l.32-.32v.45a1.61,1.61,0,0,0,1.6,1.61h1.24a1.61,1.61,0,0,0,1.6-1.61v-.45l.32.32a1.65,1.65,0,0,0,2.27,0l.87-.87a1.63,1.63,0,0,0,.47-1.14,1.59,1.59,0,0,0-.47-1.13l-.32-.32h.46a1.6,1.6,0,0,0,1.6-1.6v-1.24A1.6,1.6,0,0,0,2153,2592.91Zm.56,2.84a.56.56,0,0,1-.56.56h-1.53c-.21,0-.44.25-.52.45a.53.53,0,0,0,.11.57l1.07,1.07a.57.57,0,0,1,0,.8l-.88.88a.57.57,0,0,1-.8,0l-1.07-1.07a.5.5,0,0,0-.51-.12h0l-.17.06a.52.52,0,0,0-.33.48v1.52a.56.56,0,0,1-.56.57h-1.24a.57.57,0,0,1-.57-.57v-1.52a.7.7,0,0,0-.43-.52.57.57,0,0,0-.22,0,.49.49,0,0,0-.36.15l-1.08,1.07a.57.57,0,0,1-.8,0l-.87-.88a.54.54,0,0,1-.17-.4.56.56,0,0,1,.17-.4l1.07-1.07a.77.77,0,0,0,.07-.68.53.53,0,0,0-.49-.34h-1.52a.57.57,0,0,1-.57-.56v-1.24a.57.57,0,0,1,.57-.57h1.52a.73.73,0,0,0,.53-.44.52.52,0,0,0-.11-.57l-1.07-1.08a.54.54,0,0,1-.17-.4.56.56,0,0,1,.17-.4l.87-.87a.55.55,0,0,1,.8,0l1.08,1.07a.51.51,0,0,0,.54.11h0l.11,0h0a.51.51,0,0,0,.3-.46v-1.52a.58.58,0,0,1,.57-.57h1.24a.57.57,0,0,1,.56.57v1.52c0,.21.26.45.45.53a.53.53,0,0,0,.57-.11l1.07-1.07a.56.56,0,0,1,.4-.17h0a.53.53,0,0,1,.4.17l.88.87a.57.57,0,0,1,0,.8l-1.07,1.08a.75.75,0,0,0-.07.69.53.53,0,0,0,.48.32H2153a.56.56,0,0,1,.56.57Z" transform="translate(-2139.79 -2587.71)"/><path class="cls-2" d="M2147.21,2592.2a2.93,2.93,0,1,0,2.92,2.93A2.93,2.93,0,0,0,2147.21,2592.2Zm0,4.6a1.68,1.68,0,1,1,1.67-1.67A1.68,1.68,0,0,1,2147.21,2596.8Z" transform="translate(-2139.79 -2587.71)"/></svg>