<svg xmlns="http://www.w3.org/2000/svg" viewBox="0 0 18 18">
    <linearGradient id="MyGradient">
        <stop offset="5%" stop-color="#ffde07" />
        <stop offset="95%" stop-color="#d98e4c" />
    </linearGradient>
    <path
        d="M13.88,4.3H5.58l.75-.24c2-.58,4-1.14,5.93-1.66a1,1,0,0,1,.76,0c.28.22.29.94.29,1.34l1.25,0a2.81,2.81,0,0,0-.77-2.29A2.05,2.05,0,0,0,12,1.19C10,1.72,8,2.27,6,2.86c-.92.26-1.7.55-2.46.83s-1.3.48-2,.71h0A2.08,2.08,0,0,0,0,6.38v6.44a2.1,2.1,0,0,0,2.09,2.09H13.88A2.1,2.1,0,0,0,16,12.82V6.38A2.09,2.09,0,0,0,13.88,4.3Zm.84,8.52a.85.85,0,0,1-.84.84H2.12a.85.85,0,0,1-.84-.84V6.38a.84.84,0,0,1,.84-.83H13.88a.84.84,0,0,1,.84.83Z"
        transform="translate(-0.03 -1.09)" fill="url(#MyGradient)"/>
    <circle cx="11.58" cy="8.64" r="0.87" fill="url(#MyGradient)"/>
</svg>